<?xml version="1.0" encoding="utf-8"?>
<!-- Generator: Adobe Illustrator 27.0.1, SVG Export Plug-In . SVG Version: 6.00 Build 0)  -->
<svg version="1.1" id="Layer_1" xmlns="http://www.w3.org/2000/svg" xmlns:xlink="http://www.w3.org/1999/xlink" x="0px" y="0px"
	 viewBox="0 0 128.22 35" style="enable-background:new 0 0 128.22 35;" xml:space="preserve">
<style type="text/css">
	.st0{fill:#FFFFFF;}
	.st1{fill:#426FB5;}
</style>
<path class="st0" d="M6.88,6.05l-4.1,21.42c-0.22,1.17,0.08,2.36,0.84,3.27c0.76,0.91,1.87,1.44,3.06,1.44h51.19l5.61-29.35h-52.7
	C8.87,2.83,7.23,4.18,6.88,6.05z"/>
<path class="st1" d="M126.51,2.64c-1.24-1.5-3.07-2.36-5.02-2.36H10.77c-3.12,0-5.81,2.22-6.39,5.28l-4.1,21.42
	c-0.37,1.91,0.14,3.87,1.38,5.37c1.24,1.5,3.07,2.36,5.02,2.36h110.72c3.12,0,5.81-2.22,6.39-5.28l4.1-21.42
	C128.25,6.1,127.75,4.14,126.51,2.64z M3.62,30.73c-0.76-0.91-1.06-2.11-0.84-3.27l4.1-21.42c0.36-1.87,1.99-3.22,3.89-3.22h52.7
	l-5.61,29.35H6.67C5.49,32.17,4.37,31.65,3.62,30.73z"/>
<path class="st1" d="M7.92,25.66c-0.07,0.14-0.07,0.3,0,0.44c0.12,0.12,0.28,0.19,0.46,0.2c0.31,0.02,0.62,0.02,0.93,0
	c0.39,0,0.7,0,0.93,0c0.21-0.01,0.41-0.04,0.61-0.09c0.13-0.03,0.26-0.1,0.35-0.2c0.09-0.09,0.16-0.2,0.21-0.32l1.97-3.42h6.51
	l0.47,3.52c0,0.1,0.03,0.21,0.08,0.3c0.06,0.08,0.14,0.14,0.24,0.16c0.16,0.04,0.33,0.07,0.5,0.07h0.84c0.48,0,0.87,0,1.15,0
	c0.21,0,0.42-0.06,0.6-0.18c0.13-0.11,0.19-0.26,0.19-0.43c0-0.26-0.02-0.52-0.07-0.77L21.64,9.41C21.63,9.27,21.59,9.13,21.53,9
	c-0.08-0.12-0.2-0.2-0.33-0.22c-0.24-0.06-0.48-0.09-0.73-0.09l-1.26,0.03h-1.12c-0.23,0-0.46,0.04-0.68,0.09
	c-0.14,0.04-0.27,0.11-0.38,0.21c-0.1,0.11-0.19,0.24-0.27,0.37L8.27,24.91C8.13,25.15,8.01,25.4,7.92,25.66z M18.6,12.09
	L18.6,12.09l1,7.44h-4.93L18.6,12.09z"/>
<path class="st1" d="M26.52,26.2c0.17,0.06,0.34,0.1,0.52,0.11c0.22,0,1.49,0,1.71,0c0.19-0.02,0.38-0.05,0.57-0.11
	c0.12-0.04,0.24-0.1,0.33-0.18c0.07-0.07,0.12-0.15,0.14-0.25l1.6-8.18l4.27,8.11c0.03,0.1,0.08,0.2,0.15,0.29
	c0.08,0.09,0.18,0.15,0.3,0.19c0.18,0.05,0.37,0.09,0.56,0.1c0.24,0,1.55,0.02,1.86,0c0.2-0.02,0.4-0.06,0.59-0.12
	c0.12-0.04,0.23-0.11,0.31-0.21c0.06-0.09,0.09-0.2,0.09-0.32c0-0.12-0.02-0.24-0.06-0.35c-0.04-0.16-0.1-0.31-0.16-0.46L35.07,17
	l6.72-6.55c0.21-0.22,0.4-0.46,0.57-0.71c0.11-0.15,0.17-0.33,0.18-0.51c0-0.09-0.02-0.18-0.07-0.25C42.39,8.9,42.3,8.84,42.2,8.81
	c-0.17-0.05-0.35-0.09-0.53-0.09c-0.23,0-1.59,0-1.74,0c-0.2,0.02-0.4,0.05-0.6,0.1c-0.14,0.04-0.28,0.1-0.4,0.19
	c-0.11,0.09-0.2,0.18-0.29,0.29l-6.93,6.99l1.4-6.99c0.03-0.08,0.03-0.17,0-0.25c-0.07-0.08-0.16-0.14-0.26-0.17
	c-0.18-0.08-0.37-0.13-0.57-0.16c-0.28-0.01-0.56-0.01-0.85,0c-0.35,0-0.64,0-0.87,0c-0.19,0.02-0.38,0.05-0.57,0.1
	c-0.12,0.03-0.24,0.09-0.33,0.17c-0.07,0.07-0.11,0.16-0.12,0.25l-3.3,16.53c-0.04,0.08-0.04,0.17,0,0.25
	C26.32,26.11,26.42,26.17,26.52,26.2z"/>
<path class="st1" d="M46.19,8.72c-0.31-0.01-0.61,0.09-0.86,0.26c-0.27,0.21-0.44,0.52-0.48,0.86l-3.09,15.31
	c-0.1,0.29-0.05,0.6,0.13,0.85c0.22,0.2,0.51,0.3,0.81,0.27h4.85c0.88,0.01,1.75-0.07,2.61-0.26c0.69-0.15,1.35-0.39,1.98-0.72
	c0.54-0.28,1.04-0.64,1.48-1.06c0.36-0.38,0.68-0.8,0.93-1.26c0.25-0.43,0.46-1.01,0.87-2.59c1.29-4.97-3.55-5.11-6.14-5.11h-1.95
	L48,11.59h1.91c0.15,0,4.66-0.02,6.05-0.02c0.24,0,0.44-0.16,0.5-0.39l0.44-1.83c0.08-0.32-0.17-0.63-0.5-0.63L46.19,8.72z
	 M49.14,17.86c0.81-0.02,3.26-0.23,3.05,1.73c-0.1,0.87-0.1,2.6-2.5,3.68c-0.5,0.23-1.07,0.29-1.62,0.27h-2.51l1.21-5.68H49.14z"/>
<path class="st0" d="M111.07,8.72c-0.31-0.01-0.61,0.09-0.86,0.26c-0.27,0.21-0.44,0.52-0.48,0.86l-3.09,15.31
	c-0.1,0.29-0.05,0.6,0.13,0.85c0.22,0.2,0.51,0.3,0.81,0.27l2.3,0l3-14.53h1.91c0.15,0,4.65-0.02,6.04-0.02
	c0.24,0,0.44-0.17,0.5-0.4l0.45-1.99c0.07-0.32-0.17-0.62-0.5-0.62L111.07,8.72z"/>
<path class="st0" d="M65.13,26.13c0.16,0.06,0.33,0.09,0.5,0.1c0.28,0.01,0.56,0.01,0.84,0c0.34,0,0.62,0,0.85,0
	c0.18-0.01,0.36-0.05,0.54-0.1c0.11-0.03,0.21-0.09,0.29-0.18c0.06-0.07,0.09-0.15,0.11-0.24l2.85-14.27l0,0l2.06,14.27
	c0,0.15,0.14,0.28,0.4,0.38c0.41,0.13,0.84,0.18,1.26,0.16c0.44,0.01,0.89-0.02,1.32-0.11c0.27-0.04,0.5-0.21,0.63-0.46l7.96-14.25
	l0,0l-2.82,14.27c-0.02,0.08-0.02,0.16,0,0.24c0.05,0.09,0.13,0.15,0.22,0.18c0.16,0.06,0.33,0.09,0.5,0.1
	c0.29,0.01,0.57,0.01,0.86,0c0.33,0,0.61,0,0.84,0c0.18-0.01,0.36-0.05,0.54-0.1c0.11-0.03,0.21-0.09,0.28-0.18
	c0.05-0.07,0.1-0.15,0.12-0.24l3.12-15.6c0.03-0.2,0.03-0.4,0-0.6c-0.02-0.16-0.08-0.32-0.18-0.45c-0.1-0.13-0.23-0.22-0.38-0.28
	c-0.19-0.07-0.39-0.1-0.59-0.09h-2.49c-0.31,0-0.63,0.03-0.93,0.11c-0.27,0.07-0.51,0.2-0.73,0.36c-0.23,0.18-0.44,0.39-0.6,0.63
	c-0.2,0.3-0.38,0.61-0.54,0.93l-6.01,10.42h-0.07l-1.69-10.42c-0.03-0.32-0.09-0.63-0.2-0.93c-0.08-0.24-0.22-0.46-0.41-0.63
	c-0.2-0.17-0.43-0.29-0.69-0.34c-0.34-0.1-0.7-0.15-1.05-0.17h-2.22c-0.2,0-0.4,0.03-0.59,0.09c-0.18,0.06-0.34,0.16-0.48,0.28
	c-0.15,0.13-0.27,0.28-0.35,0.46c-0.1,0.19-0.17,0.39-0.21,0.6l-3.1,15.63c-0.03,0.08-0.03,0.16,0,0.24
	C64.94,26.05,65.03,26.11,65.13,26.13z"/>
<path class="st0" d="M88.09,25.59c-0.07,0.14-0.07,0.3,0,0.44c0.12,0.12,0.28,0.19,0.46,0.2c0.31,0.02,0.62,0.02,0.93,0
	c0.39,0,0.7,0,0.93,0c0.21-0.01,0.41-0.04,0.61-0.09c0.13-0.03,0.25-0.1,0.35-0.2c0.09-0.09,0.16-0.2,0.21-0.32l1.89-3.42h6.57
	l0.47,3.52c0,0.1,0.03,0.21,0.08,0.3c0.06,0.08,0.14,0.14,0.24,0.16c0.16,0.04,0.33,0.07,0.5,0.07h0.84c0.48,0,0.87,0,1.15,0
	c0.21,0,0.42-0.06,0.6-0.18c0.12-0.11,0.19-0.26,0.19-0.43c0-0.26-0.02-0.52-0.07-0.77l-2.22-15.52c-0.01-0.14-0.05-0.28-0.11-0.41
	c-0.08-0.12-0.2-0.2-0.33-0.22c-0.24-0.06-0.48-0.09-0.73-0.09H99.4h-1.12c-0.23,0-0.46,0.04-0.68,0.09
	c-0.14,0.04-0.27,0.11-0.38,0.21c-0.1,0.11-0.19,0.24-0.27,0.37l-8.5,15.53C88.31,25.07,88.18,25.33,88.09,25.59z M98.77,12.03
	L98.77,12.03l1,7.44h-4.92L98.77,12.03z"/>
</svg>
